Love for All and Sharing is the first step to solving all the problems of humanity.

Website I want to share. 
               
   http://www.scenetime.com
 
 
  Credit to EVERYONE for sharing and seeding back
 especially to SCENETIME.COM where i get all my 
 downloads.


 support www.scenetime.com to grow faster.

                             
                                                            
                                                   

.                 ..................................NFO:....................................[img]http://leetleech.org/images/77453498694250319603.jpeg[/img]

[b]The Final 2010 480p BRRip XviD AC3-LEGi0N[/title]

[img]http://leetleech.org/images/48874973695367351744.png[/img]
[color=red]General[/color]
Format: AVI
File size: 1.45 GiB
Duration: 1h 32mn
Overall bit rate: 2 240 Kbps
IMDb Rating: 5.4/10   1,693 votes
Genre: Drama | Horror | Thriller
Release Date: N/A
IMDb Link: http://www.imdb.com/title/tt1390535/
Source: 720p Bluray x264-CiNEFiLE

[color=red]Video[/color]
Format: MPEG-4 Visual
Format profile: Streaming Video@L1
Format settings, BVOP: Yes
Format settings, QPel: No
Format settings, GMC: No warppoints
Format settings, Matrix: Default (H.263)
Muxing mode: Packed bitstream
Codec ID: XVID
Bit rate: 1 782 Kbps
Width: 720 pixels
Height: 304 pixels
Display aspect ratio: 2.35
Frame rate: 23.976 fps
Resolution: 24 bits
Colorimetry: 4:2:0
Scan type: Progressive
Bits/(Pixel*Frame): 0.340
Stream size: 1.16 GiB (80%)

[color=red]Audio[/color]
Format: AC-3
Bit rate mode: Constant
Bit rate: 448 Kbps
Channel(s): 6 channels
Sampling rate: 48.0 KHz
Stream size: 297 MiB (20%)

[img]http://leetleech.org/images/89524873606771859129.png[/img]
A group of high school outcasts get revenge on the students that 
torment them.

[color=red]Tagline:[/color] 
Consequences. None of us are free from them

[img]http://leetleech.org/images/84434050717770922575.png[/img]
Marc Donato	... 	Dane
Jascha Washington	... 	Kurtis
Whitney Hoy	... 	Bridget
Justin Arnold	... 	Bradley
Travis Tedford	... 	Andy
Julin	... 	Heather
Lindsay Seidel	... 	Emily
Mark Nutter	... 	Deputy Henessey
Hunter Garner	... 	Tommy
Eric Isenhower	... 	Jack
Preston Flagg	... 	Riggs
Matthew Posey	... 	Parker
Laura Ashley Samuels	... 	Kelly
Vincent Silochan	... 	Ravi
Farah White	... 	Angie

[color=red]GREETZ[/color]
Noir | xXTHORNXx | bigimac | LUSi |

kempas | KaN1vE | mike160 | skillz |

Lungbuster | Sheikh | dillon1369 |

FLAWL3SS | AND ALL P2P![/b]

[img]http://leetleech.org/images/95521316153253938506.png[/img]
[img]http://leetleech.org/images/25105380536520340777.png[/img]
[img]http://leetleech.org/images/91859335337957656200.png[/img]
[img]http://leetleech.org/images/06330004436546267824.png[/img]
[img]http://leetleech.org/images/76079202481016245895.png[/img]
[img]http://leetleech.org/images/99481354133398348382.png[/img]
[img]http://leetleech.org/images/12755021538703799215.png[/img]